<svg version="1.1" viewBox="0.0 0.0 600.0 371.0" fill="none" stroke="none" stroke-linecap="square" stroke-miterlimit="10" width="600" height="371" xmlns:xlink="http://www.w3.org/1999/xlink" xmlns="http://www.w3.org/2000/svg"><path fill="#ffffff" d="M0 0L600.0 0L600.0 371.0L0 371.0L0 0Z" fill-rule="nonzero"/><path stroke="#333333" stroke-width="1.0" stroke-linecap="butt" d="M137.5 18.5L137.5 332.5" fill-rule="nonzero"/><path stroke="#cccccc" stroke-width="1.0" stroke-linecap="butt" d="M248.5 18.5L248.5 332.5" fill-rule="nonzero"/><path stroke="#cccccc" stroke-width="1.0" stroke-linecap="butt" d="M359.5 18.5L359.5 332.5" fill-rule="nonzero"/><path stroke="#cccccc" stroke-width="1.0" stroke-linecap="butt" d="M470.5 18.5L470.5 332.5" fill-rule="nonzero"/><path stroke="#cccccc" stroke-width="1.0" stroke-linecap="butt" d="M581.5 18.5L581.5 332.5" fill-rule="nonzero"/><clipPath id="id_0"><path d="M137.13 18.55L581.45 18.55L581.45 332.45L137.13 332.45L137.13 18.55Z" clip-rule="nonzero"/></clipPath><path stroke="#000000" stroke-width="0.0" stroke-linecap="butt" stroke-opacity="0.0" clip-path="url(#id_0)" d="M137.0 91.0L137.0 44.0L579.0 44.0C580.10455 44.0 581.0 44.89543 581.0 46.0L581.0 89.0C581.0 90.10457 580.10455 91.0 579.0 91.0Z" fill-rule="nonzero"/><path fill="#4285f4" clip-path="url(#id_0)" d="M137.0 91.0L137.0 44.0L579.0 44.0C580.10455 44.0 581.0 44.89543 581.0 46.0L581.0 89.0C581.0 90.10457 580.10455 91.0 579.0 91.0Z" fill-rule="nonzero"/><path stroke="#000000" stroke-width="0.0" stroke-linecap="butt" stroke-opacity="0.0" clip-path="url(#id_0)" d="M137.0 163.0L137.0 116.0L357.0 116.0C358.10458 116.0 359.0 116.89543 359.0 118.0L359.0 161.0C359.0 162.10457 358.10458 163.0 357.0 163.0Z" fill-rule="nonzero"/><path fill="#4285f4" clip-path="url(#id_0)" d="M137.0 163.0L137.0 116.0L357.0 116.0C358.10458 116.0 359.0 116.89543 359.0 118.0L359.0 161.0C359.0 162.10457 358.10458 163.0 357.0 163.0Z" fill-rule="nonzero"/><path stroke="#000000" stroke-width="0.0" stroke-linecap="butt" stroke-opacity="0.0" clip-path="url(#id_0)" d="M137.0 236.0L137.0 189.0L264.0 189.0C265.10458 189.0 266.0 189.89543 266.0 191.0L266.0 234.0C266.0 235.10457 265.10458 236.0 264.0 236.0Z" fill-rule="nonzero"/><path fill="#4285f4" clip-path="url(#id_0)" d="M137.0 236.0L137.0 189.0L264.0 189.0C265.10458 189.0 266.0 189.89543 266.0 191.0L266.0 234.0C266.0 235.10457 265.10458 236.0 264.0 236.0Z" fill-rule="nonzero"/><path stroke="#000000" stroke-width="0.0" stroke-linecap="butt" stroke-opacity="0.0" clip-path="url(#id_0)" d="M137.0 308.0L137.0 261.0L152.0 261.0C153.10457 261.0 154.0 261.89542 154.0 263.0L154.0 306.0C154.0 307.10458 153.10457 308.0 152.0 308.0Z" fill-rule="nonzero"/><path fill="#4285f4" clip-path="url(#id_0)" d="M137.0 308.0L137.0 261.0L152.0 261.0C153.10457 261.0 154.0 261.89542 154.0 263.0L154.0 306.0C154.0 307.10458 153.10457 308.0 152.0 308.0Z" fill-rule="nonzero"/><path fill="#000000" d="M96.005 71.25862L96.005 62.66487L99.23937 62.66487Q100.22375 62.66487 100.8175 62.930496Q101.41125 63.19612 101.73937 63.742996Q102.08312 64.27425 102.08312 64.868Q102.08312 65.41487 101.78625 65.89925Q101.48937 66.38362 100.88 66.6805Q101.66125 66.91487 102.0675 67.47737Q102.48937 68.02425 102.48937 68.77425Q102.48937 69.368 102.23937 69.89925Q101.98937 70.41487 101.61437 70.69612Q101.23937 70.97737 100.66125 71.118Q100.09875 71.25862 99.28625 71.25862L96.005 71.25862ZM97.14562 66.27425L99.005 66.27425Q99.755 66.27425 100.08312 66.1805Q100.52062 66.0555 100.73937 65.75862Q100.95812 65.44612 100.95812 64.993Q100.95812 64.57112 100.755 64.243Q100.55187 63.91487 100.16125 63.805496Q99.78625 63.680496 98.86437 63.680496L97.14562 63.680496L97.14562 66.27425ZM97.14562 70.243L99.28625 70.243Q99.83312 70.243 100.05187 70.19612Q100.45812 70.13362 100.70812 69.97737Q100.97375 69.8055 101.14562 69.493Q101.3175 69.1805 101.3175 68.77425Q101.3175 68.28987 101.0675 67.9305Q100.83312 67.57112 100.39562 67.4305Q99.95812 67.28987 99.13 67.28987L97.14562 67.28987L97.14562 70.243ZM104.255 71.25862L104.255 62.66487L105.38 62.66487L105.38 71.25862L104.255 71.25862ZM107.05187 71.25862L107.05187 62.66487L110.30187 62.66487Q111.14562 62.66487 111.59875 62.742996Q112.23937 62.85237 112.66125 63.149246Q113.09875 63.44612 113.34875 63.97737Q113.61437 64.50862 113.61437 65.14925Q113.61437 66.243 112.91125 67.00862Q112.22375 67.75862 110.39562 67.75862L108.1925 67.75862L108.1925 71.25862L107.05187 71.25862ZM108.1925 66.75862L110.41125 66.75862Q111.52062 66.75862 111.97375 66.35237Q112.4425 65.9305 112.4425 65.1805Q112.4425 64.64925 112.16125 64.27425Q111.89562 63.88362 111.45812 63.75862Q111.16125 63.680496 110.39562 63.680496L108.1925 63.680496L108.1925 66.75862ZM117.63 68.993L118.6925 68.85237Q118.86437 69.743 119.30187 70.14925Q119.73937 70.53987 120.36437 70.53987Q121.11437 70.53987 121.63 70.02425Q122.14562 69.50862 122.14562 68.743Q122.14562 68.02425 121.66125 67.5555Q121.1925 67.07112 120.45812 67.07112Q120.16125 67.07112 119.70812 67.19612L119.83312 66.25862Q119.9425 66.27425 120.005 66.27425Q120.67687 66.27425 121.20812 65.9305Q121.755 65.57112 121.755 64.83675Q121.755 64.25862 121.36437 63.88362Q120.97375 63.492996 120.34875 63.492996Q119.73937 63.492996 119.3175 63.88362Q118.91125 64.27425 118.80187 65.03987L117.73937 64.85237Q117.92687 63.805496 118.61437 63.22737Q119.30187 62.63362 120.3175 62.63362Q121.02062 62.63362 121.61437 62.94612Q122.20812 63.242996 122.52062 63.75862Q122.83312 64.27425 122.83312 64.868Q122.83312 65.41487 122.53625 65.88362Q122.23937 66.33675 121.66125 66.60237Q122.41125 66.77425 122.83312 67.33675Q123.255 67.88362 123.255 68.72737Q123.255 69.85237 122.42687 70.63362Q121.61437 71.41487 120.36437 71.41487Q119.23937 71.41487 118.48937 70.743Q117.73937 70.0555 117.63 68.993ZM124.63 67.02425Q124.63 65.493 124.9425 64.57112Q125.255 63.63362 125.86437 63.13362Q126.48937 62.63362 127.42687 62.63362Q128.11438 62.63362 128.63 62.91487Q129.16125 63.19612 129.505 63.72737Q129.84875 64.243 130.03625 64.993Q130.22375 65.743 130.22375 67.02425Q130.22375 68.53987 129.91125 69.46175Q129.61438 70.38362 128.98938 70.89925Q128.38 71.39925 127.42687 71.39925Q126.1925 71.39925 125.47375 70.50862Q124.63 69.44612 124.63 67.02425ZM125.70812 67.02425Q125.70812 69.13362 126.20812 69.83675Q126.70812 70.53987 127.42687 70.53987Q128.16125 70.53987 128.64563 69.83675Q129.14563 69.13362 129.14563 67.02425Q129.14563 64.89925 128.64563 64.21175Q128.16125 63.50862 127.41125 63.50862Q126.6925 63.50862 126.255 64.118Q125.70812 64.89925 125.70812 67.02425Z" fill-rule="nonzero"/><path fill="#000000" d="M59.083126 140.04454L59.083126 139.04454L62.708126 139.02892L62.708126 142.21642Q61.88 142.88829 60.989376 143.23204Q60.09875 143.56017 59.16125 143.56017Q57.895626 143.56017 56.84875 143.02892Q55.8175 142.48204 55.28625 141.46642Q54.770626 140.43517 54.770626 139.16954Q54.770626 137.90392 55.28625 136.82579Q55.8175 135.73204 56.801876 135.21642Q57.78625 134.68517 59.0675 134.68517Q60.005 134.68517 60.755 134.98204Q61.505 135.27892 61.926876 135.82579Q62.364376 136.35704 62.583126 137.23204L61.5675 137.51329Q61.364376 136.85704 61.0675 136.48204Q60.78625 136.10704 60.255 135.88829Q59.72375 135.65392 59.083126 135.65392Q58.301876 135.65392 57.72375 135.88829Q57.16125 136.12267 56.801876 136.51329Q56.458126 136.90392 56.270626 137.37267Q55.9425 138.16954 55.9425 139.09142Q55.9425 140.24767 56.333126 141.02892Q56.739376 141.79454 57.489376 142.16954Q58.239376 142.54454 59.09875 142.54454Q59.833126 142.54454 60.53625 142.26329Q61.239376 141.96642 61.59875 141.65392L61.59875 140.04454L59.083126 140.04454ZM68.17688 141.41954L69.27063 141.54454Q69.02063 142.49767 68.317505 143.02892Q67.61438 143.56017 66.536255 143.56017Q65.17688 143.56017 64.36438 142.71642Q63.5675 141.87267 63.5675 140.35704Q63.5675 138.79454 64.380005 137.93517Q65.192505 137.06017 66.473755 137.06017Q67.723755 137.06017 68.505005 137.90392Q69.30188 138.74767 69.30188 140.29454Q69.30188 140.38829 69.30188 140.57579L64.661255 140.57579Q64.723755 141.60704 65.23938 142.15392Q65.755005 142.68517 66.536255 142.68517Q67.11438 142.68517 67.52063 142.38829Q67.942505 142.07579 68.17688 141.41954ZM64.723755 139.71642L68.192505 139.71642Q68.130005 138.91954 67.80188 138.52892Q67.286255 137.91954 66.48938 137.91954Q65.755005 137.91954 65.255005 138.40392Q64.77063 138.88829 64.723755 139.71642ZM70.92688 143.41954L70.92688 137.20079L71.86438 137.20079L71.86438 138.07579Q72.55188 137.06017 73.848755 137.06017Q74.411255 137.06017 74.880005 137.26329Q75.36438 137.46642 75.598755 137.79454Q75.83313 138.12267 75.92688 138.56017Q75.973755 138.85704 75.973755 139.59142L75.973755 143.41954L74.92688 143.41954L74.92688 139.63829Q74.92688 138.98204 74.80188 138.66954Q74.67688 138.35704 74.36438 138.16954Q74.05188 137.96642 73.630005 137.96642Q72.95813 137.96642 72.45813 138.40392Q71.973755 138.82579 71.973755 140.01329L71.973755 143.41954L70.92688 143.41954ZM82.17688 141.41954L83.27063 141.54454Q83.02063 142.49767 82.317505 143.02892Q81.61438 143.56017 80.536255 143.56017Q79.17688 143.56017 78.36438 142.71642Q77.567505 141.87267 77.567505 140.35704Q77.567505 138.79454 78.380005 137.93517Q79.192505 137.06017 80.473755 137.06017Q81.723755 137.06017 82.505005 137.90392Q83.30188 138.74767 83.30188 140.29454Q83.30188 140.38829 83.30188 140.57579L78.661255 140.57579Q78.723755 141.60704 79.23938 142.15392Q79.755005 142.68517 80.536255 142.68517Q81.11438 142.68517 81.52063 142.38829Q81.942505 142.07579 82.17688 141.41954ZM78.723755 139.71642L82.192505 139.71642Q82.130005 138.91954 81.80188 138.52892Q81.286255 137.91954 80.48938 137.91954Q79.755005 137.91954 79.255005 138.40392Q78.77063 138.88829 78.723755 139.71642ZM84.505005 141.56017L85.536255 141.40392Q85.630005 142.02892 86.02063 142.35704Q86.42688 142.68517 87.161255 142.68517Q87.880005 142.68517 88.223755 142.40392Q88.58313 142.10704 88.58313 141.70079Q88.58313 141.34142 88.27063 141.13829Q88.05188 140.99767 87.192505 140.77892Q86.036255 140.48204 85.58313 140.27892Q85.14563 140.06017 84.911255 139.68517Q84.67688 139.31017 84.67688 138.84142Q84.67688 138.43517 84.86438 138.07579Q85.05188 137.71642 85.380005 137.48204Q85.630005 137.31017 86.05188 137.18517Q86.473755 137.06017 86.973755 137.06017Q87.692505 137.06017 88.23938 137.27892Q88.80188 137.48204 89.067505 137.84142Q89.33313 138.20079 89.42688 138.79454L88.39563 138.93517Q88.33313 138.46642 87.98938 138.20079Q87.661255 137.91954 87.036255 137.91954Q86.317505 137.91954 86.005005 138.16954Q85.692505 138.40392 85.692505 138.73204Q85.692505 138.93517 85.817505 139.09142Q85.95813 139.26329 86.223755 139.37267Q86.380005 139.43517 87.161255 139.63829Q88.286255 139.95079 88.723755 140.13829Q89.161255 140.32579 89.411255 140.68517Q89.661255 141.04454 89.661255 141.59142Q89.661255 142.12267 89.348755 142.59142Q89.05188 143.04454 88.473755 143.31017Q87.89563 143.56017 87.161255 143.56017Q85.942505 143.56017 85.30188 143.06017Q84.67688 142.54454 84.505005 141.56017ZM90.92688 136.04454L90.92688 134.82579L91.98938 134.82579L91.98938 136.04454L90.92688 136.04454ZM90.92688 143.41954L90.92688 137.20079L91.98938 137.20079L91.98938 143.41954L90.92688 143.41954ZM93.505005 141.56017L94.536255 141.40392Q94.630005 142.02892 95.02063 142.35704Q95.42688 142.68517 96.161255 142.68517Q96.880005 142.68517 97.223755 142.40392Q97.58313 142.10704 97.58313 141.70079Q97.58313 141.34142 97.27063 141.13829Q97.05188 140.99767 96.192505 140.77892Q95.036255 140.48204 94.58313 140.27892Q94.14563 140.06017 93.911255 139.68517Q93.67688 139.31017 93.67688 138.84142Q93.67688 138.43517 93.86438 138.07579Q94.05188 137.71642 94.380005 137.48204Q94.630005 137.31017 95.05188 137.18517Q95.473755 137.06017 95.973755 137.06017Q96.692505 137.06017 97.23938 137.27892Q97.80188 137.48204 98.067505 137.84142Q98.33313 138.20079 98.42688 138.79454L97.39563 138.93517Q97.33313 138.46642 96.98938 138.20079Q96.661255 137.91954 96.036255 137.91954Q95.317505 137.91954 95.005005 138.16954Q94.692505 138.40392 94.692505 138.73204Q94.692505 138.93517 94.817505 139.09142Q94.95813 139.26329 95.223755 139.37267Q95.380005 139.43517 96.161255 139.63829Q97.286255 139.95079 97.723755 140.13829Q98.161255 140.32579 98.411255 140.68517Q98.661255 141.04454 98.661255 141.59142Q98.661255 142.12267 98.348755 142.59142Q98.05188 143.04454 97.473755 143.31017Q96.89563 143.56017 96.161255 143.56017Q94.942505 143.56017 94.30188 143.06017Q93.67688 142.54454 93.505005 141.56017ZM103.89563 143.41954L102.911255 143.41954L102.911255 134.82579L103.973755 134.82579L103.973755 137.88829Q104.64563 137.06017 105.67688 137.06017Q106.255005 137.06017 106.755005 137.29454Q107.27063 137.51329 107.598755 137.93517Q107.942505 138.35704 108.130005 138.95079Q108.317505 139.54454 108.317505 140.21642Q108.317505 141.81017 107.52063 142.68517Q106.723755 143.56017 105.630005 143.56017Q104.52063 143.56017 103.89563 142.63829L103.89563 143.41954ZM103.880005 140.26329Q103.880005 141.37267 104.192505 141.87267Q104.692505 142.68517 105.536255 142.68517Q106.223755 142.68517 106.723755 142.09142Q107.23938 141.49767 107.23938 140.29454Q107.23938 139.07579 106.755005 138.49767Q106.27063 137.91954 105.58313 137.91954Q104.89563 137.91954 104.380005 138.52892Q103.880005 139.12267 103.880005 140.26329ZM109.89563 143.41954L109.89563 134.82579L110.95813 134.82579L110.95813 143.41954L109.89563 143.41954ZM112.536255 140.31017Q112.536255 138.57579 113.48938 137.74767Q114.286255 137.06017 115.442505 137.06017Q116.723755 137.06017 117.536255 137.90392Q118.36438 138.73204 118.36438 140.21642Q118.36438 141.41954 118.005005 142.10704Q117.64563 142.79454 116.942505 143.18517Q116.255005 143.56017 115.442505 143.56017Q114.14563 143.56017 113.33313 142.73204Q112.536255 141.88829 112.536255 140.31017ZM113.61438 140.31017Q113.61438 141.49767 114.130005 142.09142Q114.661255 142.68517 115.442505 142.68517Q116.23938 142.68517 116.755005 142.09142Q117.27063 141.49767 117.27063 140.27892Q117.27063 139.12267 116.73938 138.52892Q116.223755 137.93517 115.442505 137.93517Q114.661255 137.93517 114.130005 138.52892Q113.61438 139.10704 113.61438 140.31017ZM123.98938 141.13829L125.02063 141.27892Q124.848755 142.34142 124.14563 142.95079Q123.442505 143.56017 122.42688 143.56017Q121.14563 143.56017 120.36438 142.73204Q119.598755 141.88829 119.598755 140.32579Q119.598755 139.32579 119.92688 138.57579Q120.27063 137.81017 120.942505 137.43517Q121.630005 137.06017 122.442505 137.06017Q123.442505 137.06017 124.08313 137.57579Q124.73938 138.07579 124.92688 139.02892L123.89563 139.18517Q123.755005 138.56017 123.380005 138.24767Q123.005005 137.91954 122.473755 137.91954Q121.67688 137.91954 121.17688 138.49767Q120.67688 139.06017 120.67688 140.29454Q120.67688 141.56017 121.161255 142.12267Q121.64563 142.68517 122.411255 142.68517Q123.036255 142.68517 123.442505 142.31017Q123.86438 141.93517 123.98938 141.13829ZM125.92688 143.41954L125.92688 134.82579L126.98938 134.82579L126.98938 139.73204L129.47375 137.20079L130.84875 137.20079L128.45813 139.49767L131.08313 143.41954L129.78625 143.41954L127.723755 140.23204L126.98938 140.95079L126.98938 143.41954L125.92688 143.41954Z" fill-rule="nonzero"/><path fill="#000000" d="M44.6925 199.98671L45.833126 199.98671L45.833126 204.95546Q45.833126 206.25233 45.53625 207.01796Q45.239376 207.76796 44.47375 208.25233Q43.708126 208.72108 42.47375 208.72108Q41.270626 208.72108 40.489376 208.31483Q39.72375 207.89296 39.395626 207.11171Q39.0675 206.31483 39.0675 204.95546L39.0675 199.98671L40.208126 199.98671L40.208126 204.93983Q40.208126 206.06483 40.41125 206.59608Q40.63 207.12733 41.13 207.42421Q41.645626 207.70546 42.38 207.70546Q43.63 207.70546 44.16125 207.14296Q44.6925 206.56483 44.6925 204.93983L44.6925 199.98671ZM47.926876 208.58046L47.926876 202.36171L48.864376 202.36171L48.864376 203.23671Q49.551876 202.22108 50.84875 202.22108Q51.41125 202.22108 51.88 202.42421Q52.364376 202.62733 52.59875 202.95546Q52.833126 203.28358 52.926876 203.72108Q52.97375 204.01796 52.97375 204.75233L52.97375 208.58046L51.926876 208.58046L51.926876 204.79921Q51.926876 204.14296 51.801876 203.83046Q51.676876 203.51796 51.364376 203.33046Q51.051876 203.12733 50.63 203.12733Q49.958126 203.12733 49.458126 203.56483Q48.97375 203.98671 48.97375 205.17421L48.97375 208.58046L47.926876 208.58046ZM58.989376 206.29921L60.020626 206.43983Q59.84875 207.50233 59.145626 208.11171Q58.4425 208.72108 57.426876 208.72108Q56.145626 208.72108 55.364376 207.89296Q54.59875 207.04921 54.59875 205.48671Q54.59875 204.48671 54.926876 203.73671Q55.270626 202.97108 55.9425 202.59608Q56.63 202.22108 57.4425 202.22108Q58.4425 202.22108 59.083126 202.73671Q59.739376 203.23671 59.926876 204.18983L58.895626 204.34608Q58.755 203.72108 58.38 203.40858Q58.005 203.08046 57.47375 203.08046Q56.676876 203.08046 56.176876 203.65858Q55.676876 204.22108 55.676876 205.45546Q55.676876 206.72108 56.16125 207.28358Q56.645626 207.84608 57.41125 207.84608Q58.03625 207.84608 58.4425 207.47108Q58.864376 207.09608 58.989376 206.29921ZM60.895626 208.58046L60.895626 199.98671L61.958126 199.98671L61.958126 208.58046L60.895626 208.58046ZM67.98938 207.81483Q67.39563 208.31483 66.848755 208.51796Q66.317505 208.72108 65.692505 208.72108Q64.661255 208.72108 64.11438 208.22108Q63.5675 207.72108 63.5675 206.93983Q63.5675 206.48671 63.770626 206.11171Q63.97375 205.72108 64.317505 205.50233Q64.661255 205.26796 65.08313 205.15858Q65.380005 205.06483 66.02063 204.98671Q67.286255 204.84608 67.89563 204.62733Q67.89563 204.40858 67.89563 204.36171Q67.89563 203.70546 67.598755 203.43983Q67.192505 203.09608 66.39563 203.09608Q65.661255 203.09608 65.30188 203.36171Q64.942505 203.61171 64.77063 204.26796L63.739376 204.12733Q63.88 203.47108 64.20813 203.06483Q64.536255 202.65858 65.14563 202.43983Q65.755005 202.22108 66.55188 202.22108Q67.348755 202.22108 67.848755 202.40858Q68.348755 202.59608 68.58313 202.87733Q68.817505 203.15858 68.911255 203.59608Q68.95813 203.86171 68.95813 204.56483L68.95813 205.97108Q68.95813 207.43983 69.02063 207.83046Q69.098755 208.22108 69.30188 208.58046L68.192505 208.58046Q68.036255 208.25233 67.98938 207.81483ZM67.89563 205.45546Q67.317505 205.68983 66.17688 205.86171Q65.52063 205.95546 65.255005 206.08046Q64.98938 206.18983 64.83313 206.40858Q64.692505 206.62733 64.692505 206.90858Q64.692505 207.33046 65.005005 207.61171Q65.33313 207.89296 65.942505 207.89296Q66.55188 207.89296 67.02063 207.62733Q67.505005 207.36171 67.723755 206.89296Q67.89563 206.53358 67.89563 205.84608L67.89563 205.45546ZM70.92688 201.20546L70.92688 199.98671L71.98938 199.98671L71.98938 201.20546L70.92688 201.20546ZM70.92688 208.58046L70.92688 202.36171L71.98938 202.36171L71.98938 208.58046L70.92688 208.58046ZM73.92688 208.58046L73.92688 202.36171L74.86438 202.36171L74.86438 203.23671Q75.161255 202.76796 75.64563 202.50233Q76.130005 202.22108 76.755005 202.22108Q77.442505 202.22108 77.880005 202.50233Q78.33313 202.78358 78.505005 203.29921Q79.255005 202.22108 80.42688 202.22108Q81.36438 202.22108 81.848755 202.73671Q82.348755 203.23671 82.348755 204.31483L82.348755 208.58046L81.30188 208.58046L81.30188 204.65858Q81.30188 204.03358 81.192505 203.75233Q81.098755 203.47108 80.83313 203.29921Q80.567505 203.12733 80.192505 203.12733Q79.536255 203.12733 79.098755 203.56483Q78.67688 204.00233 78.67688 204.97108L78.67688 208.58046L77.61438 208.58046L77.61438 204.53358Q77.61438 203.83046 77.348755 203.48671Q77.098755 203.12733 76.52063 203.12733Q76.067505 203.12733 75.692505 203.36171Q75.317505 203.59608 75.14563 204.04921Q74.973755 204.50233 74.973755 205.34608L74.973755 208.58046L73.92688 208.58046ZM88.17688 206.58046L89.27063 206.70546Q89.02063 207.65858 88.317505 208.18983Q87.61438 208.72108 86.536255 208.72108Q85.17688 208.72108 84.36438 207.87733Q83.567505 207.03358 83.567505 205.51796Q83.567505 203.95546 84.380005 203.09608Q85.192505 202.22108 86.473755 202.22108Q87.723755 202.22108 88.505005 203.06483Q89.30188 203.90858 89.30188 205.45546Q89.30188 205.54921 89.30188 205.73671L84.661255 205.73671Q84.723755 206.76796 85.23938 207.31483Q85.755005 207.84608 86.536255 207.84608Q87.11438 207.84608 87.52063 207.54921Q87.942505 207.23671 88.17688 206.58046ZM84.723755 204.87733L88.192505 204.87733Q88.130005 204.08046 87.80188 203.68983Q87.286255 203.08046 86.48938 203.08046Q85.755005 203.08046 85.255005 203.56483Q84.77063 204.04921 84.723755 204.87733ZM94.95813 208.58046L94.95813 207.79921Q94.36438 208.72108 93.223755 208.72108Q92.473755 208.72108 91.848755 208.31483Q91.223755 207.89296 90.880005 207.15858Q90.536255 206.42421 90.536255 205.47108Q90.536255 204.54921 90.848755 203.78358Q91.161255 203.01796 91.786255 202.62733Q92.411255 202.22108 93.17688 202.22108Q93.73938 202.22108 94.17688 202.45546Q94.61438 202.68983 94.89563 203.06483L94.89563 199.98671L95.942505 199.98671L95.942505 208.58046L94.95813 208.58046ZM91.630005 205.47108Q91.630005 206.67421 92.130005 207.26796Q92.630005 207.84608 93.317505 207.84608Q94.005005 207.84608 94.48938 207.28358Q94.973755 206.72108 94.973755 205.56483Q94.973755 204.28358 94.473755 203.68983Q93.98938 203.09608 93.27063 203.09608Q92.567505 203.09608 92.098755 203.67421Q91.630005 204.23671 91.630005 205.47108ZM100.92688 208.58046L100.92688 202.36171L101.86438 202.36171L101.86438 203.23671Q102.161255 202.76796 102.64563 202.50233Q103.130005 202.22108 103.755005 202.22108Q104.442505 202.22108 104.880005 202.50233Q105.33313 202.78358 105.505005 203.29921Q106.255005 202.22108 107.42688 202.22108Q108.36438 202.22108 108.848755 202.73671Q109.348755 203.23671 109.348755 204.31483L109.348755 208.58046L108.30188 208.58046L108.30188 204.65858Q108.30188 204.03358 108.192505 203.75233Q108.098755 203.47108 107.83313 203.29921Q107.567505 203.12733 107.192505 203.12733Q106.536255 203.12733 106.098755 203.56483Q105.67688 204.00233 105.67688 204.97108L105.67688 208.58046L104.61438 208.58046L104.61438 204.53358Q104.61438 203.83046 104.348755 203.48671Q104.098755 203.12733 103.52063 203.12733Q103.067505 203.12733 102.692505 203.36171Q102.317505 203.59608 102.14563 204.04921Q101.973755 204.50233 101.973755 205.34608L101.973755 208.58046L100.92688 208.58046ZM110.92688 201.20546L110.92688 199.98671L111.98938 199.98671L111.98938 201.20546L110.92688 201.20546ZM110.92688 208.58046L110.92688 202.36171L111.98938 202.36171L111.98938 208.58046L110.92688 208.58046ZM113.92688 208.58046L113.92688 202.36171L114.86438 202.36171L114.86438 203.23671Q115.55188 202.22108 116.848755 202.22108Q117.411255 202.22108 117.880005 202.42421Q118.36438 202.62733 118.598755 202.95546Q118.83313 203.28358 118.92688 203.72108Q118.973755 204.01796 118.973755 204.75233L118.973755 208.58046L117.92688 208.58046L117.92688 204.79921Q117.92688 204.14296 117.80188 203.83046Q117.67688 203.51796 117.36438 203.33046Q117.05188 203.12733 116.630005 203.12733Q115.95813 203.12733 115.45813 203.56483Q114.973755 203.98671 114.973755 205.17421L114.973755 208.58046L113.92688 208.58046ZM125.17688 206.58046L126.27063 206.70546Q126.02063 207.65858 125.317505 208.18983Q124.61438 208.72108 123.536255 208.72108Q122.17688 208.72108 121.36438 207.87733Q120.567505 207.03358 120.567505 205.51796Q120.567505 203.95546 121.380005 203.09608Q122.192505 202.22108 123.473755 202.22108Q124.723755 202.22108 125.505005 203.06483Q126.30188 203.90858 126.30188 205.45546Q126.30188 205.54921 126.30188 205.73671L121.661255 205.73671Q121.723755 206.76796 122.23938 207.31483Q122.755005 207.84608 123.536255 207.84608Q124.11438 207.84608 124.52063 207.54921Q124.942505 207.23671 125.17688 206.58046ZM121.723755 204.87733L125.192505 204.87733Q125.130005 204.08046 124.80188 203.68983Q124.286255 203.08046 123.48938 203.08046Q122.755005 203.08046 122.255005 203.56483Q121.77063 204.04921 121.723755 204.87733ZM127.911255 208.58046L127.911255 202.36171L128.86438 202.36171L128.86438 203.29921Q129.22375 202.64296 129.52063 202.43983Q129.83313 202.22108 130.20813 202.22108Q130.73938 202.22108 131.28625 202.54921L130.92688 203.53358Q130.53625 203.29921 130.16125 203.29921Q129.80188 203.29921 129.52063 203.51796Q129.255 203.72108 129.14563 204.09608Q128.95813 204.65858 128.95813 205.31483L128.95813 208.58046L127.911255 208.58046Z" fill-rule="nonzero"/><path fill="#000000" d="M87.91125 222.58046L87.91125 216.36171L88.86437 216.36171L88.86437 217.29921Q89.22375 216.64296 89.52062 216.43983Q89.83312 216.22108 90.20812 216.22108Q90.73937 216.22108 91.28625 216.54921L90.92687 217.53358Q90.53625 217.29921 90.16125 217.29921Q89.80187 217.29921 89.52062 217.51796Q89.255 217.72108 89.14562 218.09608Q88.95812 218.65858 88.95812 219.31483L88.95812 222.58046L87.91125 222.58046ZM96.17687 220.58046L97.27062 220.70546Q97.02062 221.65858 96.3175 222.18983Q95.61437 222.72108 94.53625 222.72108Q93.17687 222.72108 92.36437 221.87733Q91.5675 221.03358 91.5675 219.51796Q91.5675 217.95546 92.38 217.09608Q93.1925 216.22108 94.47375 216.22108Q95.72375 216.22108 96.505 217.06483Q97.30187 217.90858 97.30187 219.45546Q97.30187 219.54921 97.30187 219.73671L92.66125 219.73671Q92.72375 220.76796 93.23937 221.31483Q93.755 221.84608 94.53625 221.84608Q95.11437 221.84608 95.52062 221.54921Q95.9425 221.23671 96.17687 220.58046ZM92.72375 218.87733L96.1925 218.87733Q96.13 218.08046 95.80187 217.68983Q95.28625 217.08046 94.48937 217.08046Q93.755 217.08046 93.255 217.56483Q92.77062 218.04921 92.72375 218.87733ZM100.0675 222.58046L98.16125 216.36171L99.255 216.36171L100.23937 219.95546L100.61437 221.28358Q100.64562 221.18983 100.9425 220.00233L101.92687 216.36171L103.005 216.36171L103.9425 219.97108L104.255 221.15858L104.61437 219.95546L105.67687 216.36171L106.70812 216.36171L104.755 222.58046L103.66125 222.58046L102.67687 218.84608L102.42687 217.79921L101.17687 222.58046L100.0675 222.58046ZM111.98937 221.81483Q111.39562 222.31483 110.84875 222.51796Q110.3175 222.72108 109.6925 222.72108Q108.66125 222.72108 108.11437 222.22108Q107.5675 221.72108 107.5675 220.93983Q107.5675 220.48671 107.77062 220.11171Q107.97375 219.72108 108.3175 219.50233Q108.66125 219.26796 109.08312 219.15858Q109.38 219.06483 110.02062 218.98671Q111.28625 218.84608 111.89562 218.62733Q111.89562 218.40858 111.89562 218.36171Q111.89562 217.70546 111.59875 217.43983Q111.1925 217.09608 110.39562 217.09608Q109.66125 217.09608 109.30187 217.36171Q108.9425 217.61171 108.77062 218.26796L107.73937 218.12733Q107.88 217.47108 108.20812 217.06483Q108.53625 216.65858 109.14562 216.43983Q109.755 216.22108 110.55187 216.22108Q111.34875 216.22108 111.84875 216.40858Q112.34875 216.59608 112.58312 216.87733Q112.8175 217.15858 112.91125 217.59608Q112.95812 217.86171 112.95812 218.56483L112.95812 219.97108Q112.95812 221.43983 113.02062 221.83046Q113.09875 222.22108 113.30187 222.58046L112.1925 222.58046Q112.03625 222.25233 111.98937 221.81483ZM111.89562 219.45546Q111.3175 219.68983 110.17687 219.86171Q109.52062 219.95546 109.255 220.08046Q108.98937 220.18983 108.83312 220.40858Q108.6925 220.62733 108.6925 220.90858Q108.6925 221.33046 109.005 221.61171Q109.33312 221.89296 109.9425 221.89296Q110.55187 221.89296 111.02062 221.62733Q111.505 221.36171 111.72375 220.89296Q111.89562 220.53358 111.89562 219.84608L111.89562 219.45546ZM114.91125 222.58046L114.91125 216.36171L115.86437 216.36171L115.86437 217.29921Q116.22375 216.64296 116.52062 216.43983Q116.83312 216.22108 117.20812 216.22108Q117.73937 216.22108 118.28625 216.54921L117.92687 217.53358Q117.53625 217.29921 117.16125 217.29921Q116.80187 217.29921 116.52062 217.51796Q116.255 217.72108 116.14562 218.09608Q115.95812 218.65858 115.95812 219.31483L115.95812 222.58046L114.91125 222.58046ZM122.95812 222.58046L122.95812 221.79921Q122.36437 222.72108 121.22375 222.72108Q120.47375 222.72108 119.84875 222.31483Q119.22375 221.89296 118.88 221.15858Q118.53625 220.42421 118.53625 219.47108Q118.53625 218.54921 118.84875 217.78358Q119.16125 217.01796 119.78625 216.62733Q120.41125 216.22108 121.17687 216.22108Q121.73937 216.22108 122.17687 216.45546Q122.61437 216.68983 122.89562 217.06483L122.89562 213.98671L123.9425 213.98671L123.9425 222.58046L122.95812 222.58046ZM119.63 219.47108Q119.63 220.67421 120.13 221.26796Q120.63 221.84608 121.3175 221.84608Q122.005 221.84608 122.48937 221.28358Q122.97375 220.72108 122.97375 219.56483Q122.97375 218.28358 122.47375 217.68983Q121.98937 217.09608 121.27062 217.09608Q120.5675 217.09608 120.09875 217.67421Q119.63 218.23671 119.63 219.47108ZM125.505 220.72108L126.53625 220.56483Q126.63 221.18983 127.02062 221.51796Q127.42687 221.84608 128.16125 221.84608Q128.88 221.84608 129.22375 221.56483Q129.58313 221.26796 129.58313 220.86171Q129.58313 220.50233 129.27063 220.29921Q129.05188 220.15858 128.1925 219.93983Q127.03625 219.64296 126.58312 219.43983Q126.14562 219.22108 125.91125 218.84608Q125.67687 218.47108 125.67687 218.00233Q125.67687 217.59608 125.86437 217.23671Q126.05187 216.87733 126.38 216.64296Q126.63 216.47108 127.05187 216.34608Q127.47375 216.22108 127.97375 216.22108Q128.6925 216.22108 129.23938 216.43983Q129.80188 216.64296 130.0675 217.00233Q130.33313 217.36171 130.42688 217.95546L129.39563 218.09608Q129.33313 217.62733 128.98938 217.36171Q128.66125 217.08046 128.03625 217.08046Q127.3175 217.08046 127.005 217.33046Q126.6925 217.56483 126.6925 217.89296Q126.6925 218.09608 126.8175 218.25233Q126.95812 218.42421 127.22375 218.53358Q127.38 218.59608 128.16125 218.79921Q129.28625 219.11171 129.72375 219.29921Q130.16125 219.48671 130.41125 219.84608Q130.66125 220.20546 130.66125 220.75233Q130.66125 221.28358 130.34875 221.75233Q130.05188 222.20546 129.47375 222.47108Q128.89563 222.72108 128.16125 222.72108Q126.9425 222.72108 126.30187 222.22108Q125.67687 221.70546 125.505 220.72108Z" fill-rule="nonzero"/><path fill="#000000" d="M56.708126 283.5539Q56.708126 281.41327 57.84875 280.21014Q59.005 278.9914 60.8175 278.9914Q62.020626 278.9914 62.97375 279.56952Q63.926876 280.13202 64.42688 281.14764Q64.92688 282.16327 64.92688 283.46014Q64.92688 284.75702 64.39563 285.78827Q63.864376 286.81952 62.895626 287.35077Q61.9425 287.88202 60.8175 287.88202Q59.59875 287.88202 58.645626 287.3039Q57.6925 286.71014 57.1925 285.71014Q56.708126 284.69452 56.708126 283.5539ZM57.88 283.56952Q57.88 285.13202 58.708126 286.02264Q59.551876 286.91327 60.8175 286.91327Q62.09875 286.91327 62.926876 286.02264Q63.755 285.1164 63.755 283.44452Q63.755 282.39764 63.395626 281.6164Q63.051876 280.83514 62.364376 280.41327Q61.676876 279.97577 60.833126 279.97577Q59.63 279.97577 58.755 280.8039Q57.88 281.63202 57.88 283.56952ZM66.05188 287.7414L66.05188 279.14764L69.30188 279.14764Q70.14563 279.14764 70.598755 279.22577Q71.23938 279.33514 71.661255 279.63202Q72.098755 279.9289 72.348755 280.46014Q72.61438 280.9914 72.61438 281.63202Q72.61438 282.72577 71.911255 283.4914Q71.223755 284.2414 69.39563 284.2414L67.192505 284.2414L67.192505 287.7414L66.05188 287.7414ZM67.192505 283.2414L69.411255 283.2414Q70.52063 283.2414 70.973755 282.83514Q71.442505 282.41327 71.442505 281.66327Q71.442505 281.13202 71.161255 280.75702Q70.89563 280.3664 70.45813 280.2414Q70.161255 280.16327 69.39563 280.16327L67.192505 280.16327L67.192505 283.2414ZM72.942505 290.13202L72.942505 289.3664L79.942505 289.3664L79.942505 290.13202L72.942505 290.13202ZM81.067505 287.7414L81.067505 279.14764L84.880005 279.14764Q86.036255 279.14764 86.630005 279.38202Q87.223755 279.6164 87.58313 280.21014Q87.942505 280.78827 87.942505 281.4914Q87.942505 282.41327 87.348755 283.03827Q86.755005 283.66327 85.52063 283.83514Q85.973755 284.0539 86.20813 284.25702Q86.70813 284.71014 87.14563 285.39764L88.64563 287.7414L87.20813 287.7414L86.08313 285.96014Q85.58313 285.1789 85.255005 284.77264Q84.942505 284.3664 84.67688 284.21014Q84.42688 284.03827 84.161255 283.96014Q83.973755 283.9289 83.536255 283.9289L82.20813 283.9289L82.20813 287.7414L81.067505 287.7414ZM82.20813 282.94452L84.661255 282.94452Q85.42688 282.94452 85.86438 282.78827Q86.317505 282.6164 86.536255 282.27264Q86.77063 281.91327 86.77063 281.4914Q86.77063 280.88202 86.317505 280.4914Q85.880005 280.10077 84.92688 280.10077L82.20813 280.10077L82.20813 282.94452ZM90.08313 287.7414L90.08313 279.14764L96.286255 279.14764L96.286255 280.16327L91.223755 280.16327L91.223755 282.78827L95.973755 282.78827L95.973755 283.8039L91.223755 283.8039L91.223755 286.72577L96.48938 286.72577L96.48938 287.7414L90.08313 287.7414ZM100.23938 287.7414L100.23938 280.16327L97.411255 280.16327L97.411255 279.14764L104.223755 279.14764L104.223755 280.16327L101.380005 280.16327L101.380005 287.7414L100.23938 287.7414ZM110.692505 279.14764L111.83313 279.14764L111.83313 284.1164Q111.83313 285.41327 111.536255 286.1789Q111.23938 286.9289 110.473755 287.41327Q109.70813 287.88202 108.473755 287.88202Q107.27063 287.88202 106.48938 287.47577Q105.723755 287.0539 105.39563 286.27264Q105.067505 285.47577 105.067505 284.1164L105.067505 279.14764L106.20813 279.14764L106.20813 284.10077Q106.20813 285.22577 106.411255 285.75702Q106.630005 286.28827 107.130005 286.58514Q107.64563 286.8664 108.380005 286.8664Q109.630005 286.8664 110.161255 286.3039Q110.692505 285.72577 110.692505 284.10077L110.692505 279.14764ZM114.067505 287.7414L114.067505 279.14764L117.880005 279.14764Q119.036255 279.14764 119.630005 279.38202Q120.223755 279.6164 120.58313 280.21014Q120.942505 280.78827 120.942505 281.4914Q120.942505 282.41327 120.348755 283.03827Q119.755005 283.66327 118.52063 283.83514Q118.973755 284.0539 119.20813 284.25702Q119.70813 284.71014 120.14563 285.39764L121.64563 287.7414L120.20813 287.7414L119.08313 285.96014Q118.58313 285.1789 118.255005 284.77264Q117.942505 284.3664 117.67688 284.21014Q117.42688 284.03827 117.161255 283.96014Q116.973755 283.9289 116.536255 283.9289L115.20813 283.9289L115.20813 287.7414L114.067505 287.7414ZM115.20813 282.94452L117.661255 282.94452Q118.42688 282.94452 118.86438 282.78827Q119.317505 282.6164 119.536255 282.27264Q119.77063 281.91327 119.77063 281.4914Q119.77063 280.88202 119.317505 280.4914Q118.880005 280.10077 117.92688 280.10077L115.20813 280.10077L115.20813 282.94452ZM123.05188 287.7414L123.05188 279.14764L124.20813 279.14764L128.72375 285.89764L128.72375 279.14764L129.8175 279.14764L129.8175 287.7414L128.64563 287.7414L124.130005 280.9914L124.130005 287.7414L123.05188 287.7414Z" fill-rule="nonzero"/><path fill="#000000" d="M134.13 345.21564Q134.13 343.6844 134.4425 342.7625Q134.755 341.825 135.36438 341.325Q135.98938 340.825 136.92688 340.825Q137.61438 340.825 138.13 341.10626Q138.66125 341.3875 139.005 341.91876Q139.34875 342.4344 139.53625 343.1844Q139.72375 343.9344 139.72375 345.21564Q139.72375 346.73126 139.41125 347.65314Q139.11438 348.575 138.48938 349.09064Q137.88 349.59064 136.92688 349.59064Q135.6925 349.59064 134.97375 348.7Q134.13 347.6375 134.13 345.21564ZM135.20813 345.21564Q135.20813 347.325 135.70813 348.02814Q136.20813 348.73126 136.92688 348.73126Q137.66125 348.73126 138.14563 348.02814Q138.64563 347.325 138.64563 345.21564Q138.64563 343.09064 138.14563 342.40314Q137.66125 341.7 136.91125 341.7Q136.1925 341.7 135.755 342.3094Q135.20813 343.09064 135.20813 345.21564Z" fill-rule="nonzero"/><path fill="#000000" d="M247.25688 348.4344L247.25688 349.45L241.56938 349.45Q241.56938 349.075 241.69438 348.71564Q241.91313 348.1375 242.38188 347.575Q242.86626 347.0125 243.7725 346.27814Q245.17876 345.1219 245.66313 344.45Q246.16313 343.77814 246.16313 343.1844Q246.16313 342.5594 245.71 342.1375Q245.25688 341.7 244.53813 341.7Q243.7725 341.7 243.31938 342.15314Q242.86626 342.60626 242.85063 343.41876L241.7725 343.3094Q241.88188 342.09064 242.60063 341.46564Q243.335 340.825 244.56938 340.825Q245.80376 340.825 246.5225 341.5125Q247.24126 342.2 247.24126 343.21564Q247.24126 343.73126 247.0225 344.23126Q246.81938 344.71564 246.31938 345.27814Q245.835 345.825 244.71 346.77814Q243.75688 347.575 243.47563 347.8719Q243.21 348.15314 243.03813 348.4344L247.25688 348.4344ZM248.71 347.2L249.81938 347.10626Q249.94438 347.91876 250.38188 348.325Q250.835 348.73126 251.47563 348.73126Q252.22563 348.73126 252.75688 348.15314Q253.28813 347.575 253.28813 346.6375Q253.28813 345.73126 252.7725 345.21564Q252.2725 344.6844 251.44438 344.6844Q250.94438 344.6844 250.5225 344.91876Q250.11626 345.15314 249.88188 345.5125L248.8975 345.3875L249.72563 340.98126L254.00688 340.98126L254.00688 341.98126L250.56938 341.98126L250.11626 344.29376Q250.88188 343.7469 251.72563 343.7469Q252.85063 343.7469 253.61626 344.52814Q254.3975 345.3094 254.3975 346.54376Q254.3975 347.7 253.72563 348.5594Q252.8975 349.59064 251.47563 349.59064Q250.30376 349.59064 249.55376 348.9344Q248.81938 348.27814 248.71 347.2Z" fill-rule="nonzero"/><path fill="#000000" d="M352.79 347.2L353.89938 347.10626Q354.02438 347.91876 354.46188 348.325Q354.915 348.73126 355.55563 348.73126Q356.30563 348.73126 356.83688 348.15314Q357.36813 347.575 357.36813 346.6375Q357.36813 345.73126 356.8525 345.21564Q356.3525 344.6844 355.52438 344.6844Q355.02438 344.6844 354.6025 344.91876Q354.19626 345.15314 353.96188 345.5125L352.9775 345.3875L353.80563 340.98126L358.08688 340.98126L358.08688 341.98126L354.64938 341.98126L354.19626 344.29376Q354.96188 343.7469 355.80563 343.7469Q356.93063 343.7469 357.69626 344.52814Q358.4775 345.3094 358.4775 346.54376Q358.4775 347.7 357.80563 348.5594Q356.9775 349.59064 355.55563 349.59064Q354.38376 349.59064 353.63376 348.9344Q352.89938 348.27814 352.79 347.2ZM359.79 345.21564Q359.79 343.6844 360.1025 342.7625Q360.415 341.825 361.02438 341.325Q361.64938 340.825 362.58688 340.825Q363.27438 340.825 363.79 341.10626Q364.32126 341.3875 364.665 341.91876Q365.00876 342.4344 365.19626 343.1844Q365.38376 343.9344 365.38376 345.21564Q365.38376 346.73126 365.07126 347.65314Q364.77438 348.575 364.14938 349.09064Q363.54 349.59064 362.58688 349.59064Q361.3525 349.59064 360.63376 348.7Q359.79 347.6375 359.79 345.21564ZM360.86813 345.21564Q360.86813 347.325 361.36813 348.02814Q361.86813 348.73126 362.58688 348.73126Q363.32126 348.73126 363.80563 348.02814Q364.30563 347.325 364.30563 345.21564Q364.30563 343.09064 363.80563 342.40314Q363.32126 341.7 362.57126 341.7Q361.8525 341.7 361.415 342.3094Q360.86813 343.09064 360.86813 345.21564Z" fill-rule="nonzero"/><path fill="#000000" d="M463.9325 341.98126L463.9325 340.96564L469.495 340.96564L469.495 341.79376Q468.6825 342.66876 467.87 344.1219Q467.07312 345.5594 466.63562 347.09064Q466.3075 348.16876 466.22937 349.45L465.13562 349.45Q465.15125 348.4344 465.52625 346.9969Q465.91687 345.5594 466.62 344.23126Q467.33875 342.90314 468.15125 341.98126L463.9325 341.98126ZM470.87 347.2L471.97937 347.10626Q472.10437 347.91876 472.54187 348.325Q472.995 348.73126 473.63562 348.73126Q474.38562 348.73126 474.91687 348.15314Q475.44812 347.575 475.44812 346.6375Q475.44812 345.73126 474.9325 345.21564Q474.4325 344.6844 473.60437 344.6844Q473.10437 344.6844 472.6825 344.91876Q472.27625 345.15314 472.04187 345.5125L471.0575 345.3875L471.88562 340.98126L476.16687 340.98126L476.16687 341.98126L472.72937 341.98126L472.27625 344.29376Q473.04187 343.7469 473.88562 343.7469Q475.01062 343.7469 475.77625 344.52814Q476.5575 345.3094 476.5575 346.54376Q476.5575 347.7 475.88562 348.5594Q475.0575 349.59064 473.63562 349.59064Q472.46375 349.59064 471.71375 348.9344Q470.97937 348.27814 470.87 347.2Z" fill-rule="nonzero"/><path fill="#000000" d="M575.41876 349.45L574.3719 349.45L574.3719 342.73126Q573.98126 343.09064 573.35626 343.46564Q572.7469 343.825 572.2625 343.9969L572.2625 342.98126Q573.1375 342.5594 573.79376 341.98126Q574.46564 341.3875 574.7469 340.825L575.41876 340.825L575.41876 349.45ZM578.45 345.21564Q578.45 343.6844 578.7625 342.7625Q579.075 341.825 579.6844 341.325Q580.3094 340.825 581.2469 340.825Q581.9344 340.825 582.45 341.10626Q582.98126 341.3875 583.325 341.91876Q583.66876 342.4344 583.85626 343.1844Q584.04376 343.9344 584.04376 345.21564Q584.04376 346.73126 583.73126 347.65314Q583.4344 348.575 582.8094 349.09064Q582.2 349.59064 581.2469 349.59064Q580.0125 349.59064 579.29376 348.7Q578.45 347.6375 578.45 345.21564ZM579.52814 345.21564Q579.52814 347.325 580.02814 348.02814Q580.52814 348.73126 581.2469 348.73126Q581.98126 348.73126 582.46564 348.02814Q582.96564 347.325 582.96564 345.21564Q582.96564 343.09064 582.46564 342.40314Q581.98126 341.7 581.23126 341.7Q580.5125 341.7 580.075 342.3094Q579.52814 343.09064 579.52814 345.21564ZM585.45 345.21564Q585.45 343.6844 585.7625 342.7625Q586.075 341.825 586.6844 341.325Q587.3094 340.825 588.2469 340.825Q588.9344 340.825 589.45 341.10626Q589.98126 341.3875 590.325 341.91876Q590.66876 342.4344 590.85626 343.1844Q591.04376 343.9344 591.04376 345.21564Q591.04376 346.73126 590.73126 347.65314Q590.4344 348.575 589.8094 349.09064Q589.2 349.59064 588.2469 349.59064Q587.0125 349.59064 586.29376 348.7Q585.45 347.6375 585.45 345.21564ZM586.52814 345.21564Q586.52814 347.325 587.02814 348.02814Q587.52814 348.73126 588.2469 348.73126Q588.98126 348.73126 589.46564 348.02814Q589.96564 347.325 589.96564 345.21564Q589.96564 343.09064 589.46564 342.40314Q588.98126 341.7 588.23126 341.7Q587.5125 341.7 587.075 342.3094Q586.52814 343.09064 586.52814 345.21564Z" fill-rule="nonzero"/></svg>